# xmcd
#
# Track frame offsets: 
#        150
#        13738
#        25353
#        36538
#        46933
#        57400
#        70040
#        82560
#        95625
#        112415
#        123048
#        135278
#        147525
#        159483
#        177300
#
# Disc length: 2541 seconds
#
# Revision: 3
# Processed by: cddbd v1.5.2PL0 Copyright (c) Steve Scherf et al.
# Submitted via: ExactAudioCopy v1.0b1
#
DISCID=cc09eb0f
DTITLE=Various Artist - Classic Country Vol. 23 Great Country Gospel II Disc 
DTITLE=1
DYEAR=2001
DGENRE=Country
TTITLE0=Roy Acuff - Thank God
TTITLE1=Bill Monroes - I Am A Pilgrim
TTITLE2=George Jones - Old Brush Arbors
TTITLE3=Sonny James - Till The Last Leaf Shall Fall
TTITLE4=Bill Anderson - Blessed Assurance
TTITLE5=Don Gibson - Where No One Stands Alone
TTITLE6=Conway Twitty - Who Will Pray For Me
TTITLE7=Dolly Parton - Golden Streets Of Glory
TTITLE8=Eddy Arnold - Love Lifted Me
TTITLE9=Jordanaires - Every Time I Feel The Spirit
TTITLE10=Webb Pierce - What Would You Give In Exchange For Your Soul
TTITLE11=Jim Reeves - God Be With You
TTITLE12=Wilburn Brothers - Throw Out The Life Line
TTITLE13=Johnny Cash - Were You There (When They Crucified My Lord)
TTITLE14=Statler Brothers - The Lord's Prayer
EXTD=
EXTT0=
EXTT1=
EXTT2=
EXTT3=
EXTT4=
EXTT5=
EXTT6=
EXTT7=
EXTT8=
EXTT9=
EXTT10=
EXTT11=
EXTT12=
EXTT13=
EXTT14=
PLAYORDER=
